HIERARCHY
ROOT Hips
{
	OFFSET 0.00000 0.00000 0.00000
	CHANNELS 6 Xposition Yposition Zposition Zrotation Yrotation Xrotation 
	JOINT LHipJoint
	{
		OFFSET 0 0 0
		CHANNELS 3 Zrotation Yrotation Xrotation
		JOINT LeftHip
		{
			OFFSET 1.65674 -1.80282 0.62477
			CHANNELS 3 Zrotation Yrotation Xrotation
			JOINT LeftKnee
			{
				OFFSET 2.59720 -7.13576 0.00000
				CHANNELS 3 Zrotation Yrotation Xrotation
				JOINT LeftAnkle
				{
					OFFSET 2.49236 -6.84770 0.00000
					CHANNELS 3 Zrotation Yrotation Xrotation
					JOINT LeftToe
					{
						OFFSET 0.19704 -0.54136 2.14581
						CHANNELS 3 Zrotation Yrotation Xrotation
						End Site
						{
							OFFSET 0.00000 -0.00000 1.11249
						}
					}
				}
			}
		}
	}
	JOINT RHipJoint
	{
		OFFSET 0 0 0
		CHANNELS 3 Zrotation Yrotation Xrotation
		JOINT RightHip
		{
			OFFSET -1.61070 -1.80282 0.62476
			CHANNELS 3 Zrotation Yrotation Xrotation
			JOINT RightKnee
			{
				OFFSET -2.59502 -7.12977 0.00000
				CHANNELS 3 Zrotation Yrotation Xrotation
				JOINT RightAnkle
				{
					OFFSET -2.46780 -6.78024 0.00000
					CHANNELS 3 Zrotation Yrotation Xrotation
					JOINT RightToe
					{
						OFFSET -0.23024 -0.63258 2.13368
						CHANNELS 3 Zrotation Yrotation Xrotation
						End Site
						{
							OFFSET -0.00000 -0.00000 1.11569
						}
					}
				}
			}
		}
	}
	JOINT lowerback
	{
		OFFSET 0 0 0
		CHANNELS 3 Zrotation Yrotation Xrotation
		JOINT Chest
		{
			OFFSET 0.01961 2.05450 -0.14112
			CHANNELS 3 Zrotation Yrotation Xrotation
			JOINT Chest2
			{
				OFFSET 0.01021 2.06436 -0.05921
				CHANNELS 3 Zrotation Yrotation Xrotation
				JOINT lowerneck
				{
					OFFSET 0 0 0
					CHANNELS 3 Zrotation Yrotation Xrotation
					JOINT Neck
					{
						OFFSET 0.00713 1.56711 0.14968
						CHANNELS 3 Zrotation Yrotation Xrotation
						JOINT Head
						{
							OFFSET 0.03429 1.56041 -0.10006
							CHANNELS 3 Zrotation Yrotation Xrotation
							End Site
							{
								OFFSET 0.01305 1.62560 -0.05265
							}
						}
					}
				}
				JOINT LeftCollar
				{
					OFFSET 0 0 0
					CHANNELS 3 Zrotation Yrotation Xrotation
					JOINT LeftShoulder
					{
						OFFSET 3.54205 0.90436 -0.17364
CHANNELS 3 Zrotation Xrotation Yrotation
						JOINT LeftElbow
						{
OFFSET 0 -4.865130 -0.000000
CHANNELS 3 Zrotation Xrotation Yrotation
							JOINT LeftWrist
							{
OFFSET 0 -3.355540 0.000000
CHANNELS 3 Zrotation Xrotation Yrotation
								JOINT lhand
								{
									OFFSET 0 0 0
CHANNELS 3 Zrotation Xrotation Yrotation
									JOINT LFingers
									{
OFFSET 0 -0.661170 0.000000
CHANNELS 3 Zrotation Xrotation Yrotation
										End Site
										{
OFFSET 0 -0.533060 0.000000
										}
									}
								}
								JOINT LThumb
								{
OFFSET 0 0.000000 0.000000
CHANNELS 3 Zrotation Xrotation Yrotation
									End Site
									{
OFFSET 0 -0.541200 0.541200
									}
								}
							}
						}
					}
				}
				JOINT RightCollar
				{
					OFFSET 0 0 0
					CHANNELS 3 Zrotation Yrotation Xrotation
					JOINT RightShoulder
					{
						OFFSET -3.49802 0.75994 -0.32616
CHANNELS 3 Zrotation Xrotation Yrotation
						JOINT RightElbow
						{
OFFSET 0 -5.026490 0.000000
CHANNELS 3 Zrotation Xrotation Yrotation
							JOINT RightWrist
							{
OFFSET 0 -3.364310 0.000000
CHANNELS 3 Zrotation Xrotation Yrotation
								JOINT rhand
								{
									OFFSET 0 0 0
CHANNELS 3 Zrotation Xrotation Yrotation
									JOINT RFingers
									{
OFFSET 0 -0.730410 0.000000
CHANNELS 3 Zrotation Xrotation Yrotation
										End Site
										{
OFFSET 0 -0.588870 0.000000
										}
									}
								}
								JOINT RThumb
								{
OFFSET 0 0.000000 0.000000
CHANNELS 3 Zrotation Xrotation Yrotation
									End Site
									{
OFFSET 0 -0.597860 0.597860
									}
								}
							}
						}
					}
				}
			}
		}
	}
}
MOTION
Frames: 6
Frame Time: 0.008333333333333333
15.796200 17.509800 1.672400 -0.142100 -15.791100 -6.522100 0.000000 0.000000 0.000000 -20.669000 -8.677500 -0.321200 2.928100 10.577700 30.868500 1.025500 -0.124900 -19.106800 0.057000 -1.541000 -4.238800 0.000000 0.000000 0.000000 17.364400 9.221100 -4.815100 -2.608400 -10.032400 29.081600 -0.420800 -5.511200 -15.516600 -0.358900 3.848600 -10.651200 -2.340600 0.706800 6.392400 0.164800 0.800300 3.369300 1.431300 0.365800 -0.146500 -3.232800 -0.399500 -14.358100 0.400500 -0.025200 0.036600 0.696400 -0.017600 2.510900 0.000000 0.000000 0.000000 -8.779200 -12.268800 -55.017600 76.631600 -59.313800 48.449300 34.134800 -16.538300 -15.452200 0.000000 0.000000 0.000000 -7.125000 0.000000 0.000000 6.347700 48.343900 -0.525600 0.000000 0.000000 0.000000 3.753000 -16.312400 69.248700 -50.634000 -53.248000 -26.681300 -47.147500 -40.884200 -31.267800 0.000000 0.000000 0.000000 7.125000 0.000000 -0.000000 -8.490800 -11.377400 -10.098800
15.930628 17.542429 1.630106 -0.195630 -16.793222 -5.727863 0.000000 0.000000 0.000000 -20.624693 -7.584275 -1.716746 2.880385 10.498709 30.607418 0.964202 -0.096789 -18.533657 0.075998 -1.763600 -4.853224 0.000000 0.000000 0.000000 16.800553 9.719349 -5.905885 -2.597447 -10.012944 29.018682 -0.437731 -4.580059 -15.023975 -0.310349 3.581012 -9.900842 -2.756242 0.670820 6.040203 0.297701 0.741396 3.306516 1.808100 0.328886 -0.018945 -3.195010 -0.416482 -14.524342 0.507860 -0.058060 -0.317298 0.721445 -0.027448 2.421254 0.000000 0.000000 0.000000 -8.644805 -12.772138 -55.582057 76.419345 -59.291473 48.266830 33.065441 -15.870794 -17.677844 0.000000 0.000000 0.000000 -7.125000 0.000000 0.000000 5.132263 50.731572 -0.726169 0.000000 0.000000 0.000000 2.913073 -16.771334 68.883002 -51.051843 -53.410899 -27.016467 -46.414657 -40.801749 -31.865811 0.000000 0.000000 0.000000 7.125000 0.000000 0.000000 -7.923856 -11.706333 -9.447830
16.060814 17.566382 1.587703 -0.100396 -18.248357 -5.739050 0.000000 0.000000 0.000000 -20.835956 -6.128275 -1.967145 2.725493 10.236742 29.746933 0.934972 -0.363133 -18.160408 0.034363 -1.196038 -3.288426 0.000000 0.000000 0.000000 16.299876 10.414724 -6.226332 -2.562671 -9.950908 28.817989 -0.386712 -4.180163 -14.034960 -0.294509 3.489457 -9.644580 -3.277975 0.754691 6.446144 0.299813 0.810052 3.471056 2.095974 0.354974 -0.083625 -3.296643 -0.587298 -14.516812 0.961561 -0.292214 -0.867791 0.869291 -0.124025 2.240361 0.000000 0.000000 0.000000 -8.398520 -13.336540 -56.135636 75.745206 -59.218133 47.687389 33.584506 -16.416315 -16.296495 0.000000 0.000000 0.000000 -7.125000 0.000000 0.000000 5.757225 49.231423 -0.602489 0.000000 0.000000 0.000000 2.814005 -17.247681 68.142806 -51.005051 -53.392859 -26.978866 -46.401704 -40.522199 -32.274316 0.000000 0.000000 0.000000 7.125000 0.000000 0.000000 -7.792946 -12.159570 -9.336503
16.167025 17.602456 1.532542 -0.620458 -20.313460 -5.200082 0.000000 0.000000 0.000000 -20.164698 -4.250497 -2.933431 2.638617 10.085678 29.254604 0.893983 -0.223031 -17.801323 0.022447 -0.956723 -2.629889 0.000000 0.000000 0.000000 16.632086 11.367144 -6.561598 -2.397462 -9.648789 27.846890 -0.295694 -4.153238 -12.653018 -0.305740 3.554895 -9.827747 -3.580764 1.032094 6.575094 0.552188 1.157253 3.471377 2.501224 0.523821 -0.185438 -3.025842 -0.490944 -14.597198 1.003505 -0.212999 -1.204446 0.838658 -0.081926 2.137338 0.000000 0.000000 0.000000 -8.116418 -13.810275 -56.791081 75.387362 -59.177451 47.380092 33.529185 -16.765035 -15.917354 0.000000 0.000000 0.000000 -7.125000 0.000000 0.000000 5.722196 48.781622 -0.535222 0.000000 0.000000 0.000000 2.155491 -17.238461 67.363511 -51.709683 -53.662139 -27.545554 -46.632106 -40.559003 -32.651266 0.000000 0.000000 0.000000 7.125000 0.000000 0.000000 -7.797617 -12.692029 -9.397325
16.345901 17.628964 1.494595 -0.744699 -20.832764 -4.823298 0.000000 0.000000 0.000000 -20.459886 -4.155564 -3.626515 2.581131 9.984018 28.924942 0.859368 0.095733 -17.558741 0.008345 -0.587748 -1.615062 0.000000 0.000000 0.000000 16.008460 10.722460 -7.246596 -2.261495 -9.390615 27.025115 -0.270184 -3.909389 -12.052715 -0.156267 2.547039 -7.019997 -3.148685 0.716738 6.880268 0.455759 0.750412 3.556286 2.184405 0.325177 -0.233229 -3.685335 -0.671936 -14.857959 1.981912 -0.370995 -1.667269 1.263114 -0.124521 2.044210 0.000000 0.000000 0.000000 -7.858945 -14.576336 -57.174491 74.702963 -59.097078 46.792524 31.744445 -16.808082 -16.889167 0.000000 0.000000 0.000000 -7.125000 0.000000 0.000000 3.859036 49.588805 -0.437189 0.000000 0.000000 0.000000 1.188493 -17.679971 66.981448 -52.769366 -54.053092 -28.401276 -46.211264 -38.930090 -30.508439 0.000000 0.000000 0.000000 7.125000 0.000000 0.000000 -8.218938 -10.067650 -9.619816
16.467173 17.661704 1.437043 -0.879209 -22.490388 -4.167995 0.000000 0.000000 0.000000 -20.485633 -3.380627 -4.634812 2.523557 9.880579 28.590848 0.806802 0.840745 -17.295085 0.004623 -0.436629 -1.199830 0.000000 0.000000 0.000000 15.771270 10.636591 -8.258794 -2.160129 -9.191913 26.397476 -0.252265 -3.847070 -11.702518 -0.377976 3.898222 -10.796594 -3.526735 0.753536 6.899214 0.520514 0.774279 3.480497 2.461555 0.334428 -0.327681 -4.115561 -0.604327 -14.740778 2.830002 -0.240456 -2.305344 1.620904 -0.030182 1.815552 0.000000 0.000000 0.000000 -7.511517 -15.049434 -57.270884 74.434360 -59.064361 46.562129 30.044504 -17.526536 -16.640237 0.000000 0.000000 0.000000 -7.125000 0.000000 0.000000 2.188356 49.015985 -0.217892 0.000000 0.000000 0.000000 0.411220 -17.886382 66.539549 -53.352101 -54.261120 -28.873651 -45.231944 -38.668177 -31.182490 0.000000 0.000000 0.000000 7.125000 0.000000 0.000000 -7.500475 -10.388841 -8.799359
